<svg aria-hidden="true" style="position: absolute; width: 0; height: 0; overflow: hidden;" version="1.1" xmlns="http://www.w3.org/2000/svg" xmlns:xlink="http://www.w3.org/1999/xlink">
<defs>
<symbol id="icon-facebook" viewBox="0 0 20 32">
<path d="M19.556 0.889c0-0.236-0.094-0.462-0.26-0.629s-0.393-0.26-0.628-0.26h-4.444c-2.238-0.111-4.429 0.667-6.095 2.166s-2.67 3.596-2.794 5.834v4.8h-4.444c-0.236 0-0.462 0.094-0.629 0.26s-0.26 0.393-0.26 0.628v4.622c0 0.236 0.094 0.462 0.26 0.628s0.393 0.26 0.629 0.26h4.444v11.911c0 0.236 0.094 0.462 0.26 0.628s0.393 0.26 0.629 0.26h5.333c0.236 0 0.462-0.094 0.629-0.26s0.26-0.393 0.26-0.628v-11.911h4.658c0.198 0.003 0.391-0.060 0.548-0.179s0.271-0.287 0.323-0.478l1.28-4.622c0.035-0.131 0.040-0.269 0.014-0.403s-0.083-0.259-0.165-0.367c-0.082-0.108-0.189-0.196-0.31-0.257s-0.256-0.093-0.392-0.093h-5.956v-4.8c0.044-0.44 0.251-0.848 0.58-1.144s0.756-0.459 1.198-0.456h4.444c0.236 0 0.462-0.094 0.628-0.26s0.26-0.393 0.26-0.629v-4.622z"></path>
</symbol>
<symbol id="icon-inst" viewBox="0 0 32 32">
<path d="M16 0c-4.347 0-4.889 0.020-6.596 0.096-1.704 0.080-2.864 0.348-3.884 0.744-1.052 0.408-1.945 0.956-2.835 1.845s-1.439 1.781-1.845 2.835c-0.396 1.020-0.665 2.18-0.744 3.884-0.080 1.707-0.096 2.249-0.096 6.596s0.020 4.889 0.096 6.596c0.080 1.703 0.348 2.864 0.744 3.884 0.408 1.051 0.956 1.945 1.845 2.835 0.889 0.888 1.781 1.439 2.835 1.845 1.021 0.395 2.181 0.665 3.884 0.744 1.707 0.080 2.249 0.096 6.596 0.096s4.889-0.020 6.596-0.096c1.703-0.080 2.864-0.349 3.884-0.744 1.051-0.408 1.945-0.957 2.835-1.845 0.888-0.889 1.439-1.78 1.845-2.835 0.395-1.020 0.665-2.181 0.744-3.884 0.080-1.707 0.096-2.249 0.096-6.596s-0.020-4.889-0.096-6.596c-0.080-1.703-0.349-2.865-0.744-3.884-0.408-1.052-0.957-1.945-1.845-2.835-0.889-0.889-1.78-1.439-2.835-1.845-1.020-0.396-2.181-0.665-3.884-0.744-1.707-0.080-2.249-0.096-6.596-0.096zM16 2.88c4.271 0 4.78 0.021 6.467 0.095 1.56 0.073 2.407 0.332 2.969 0.553 0.749 0.289 1.28 0.636 1.843 1.195 0.559 0.56 0.905 1.092 1.195 1.841 0.219 0.563 0.48 1.409 0.551 2.969 0.076 1.688 0.093 2.195 0.093 6.467s-0.020 4.78-0.099 6.467c-0.081 1.56-0.341 2.407-0.561 2.969-0.299 0.749-0.639 1.28-1.199 1.843-0.559 0.559-1.099 0.905-1.84 1.195-0.56 0.219-1.42 0.48-2.98 0.551-1.699 0.076-2.199 0.093-6.479 0.093-4.281 0-4.781-0.020-6.479-0.099-1.561-0.081-2.421-0.341-2.981-0.561-0.759-0.299-1.28-0.639-1.839-1.199-0.561-0.559-0.92-1.099-1.2-1.84-0.22-0.56-0.479-1.42-0.56-2.98-0.060-1.68-0.081-2.199-0.081-6.459 0-4.261 0.021-4.781 0.081-6.481 0.081-1.56 0.34-2.419 0.56-2.979 0.28-0.76 0.639-1.28 1.2-1.841 0.559-0.559 1.080-0.919 1.839-1.197 0.56-0.221 1.401-0.481 2.961-0.561 1.7-0.060 2.2-0.080 6.479-0.080l0.060 0.040zM16 7.784c-4.54 0-8.216 3.68-8.216 8.216 0 4.54 3.68 8.216 8.216 8.216 4.54 0 8.216-3.68 8.216-8.216 0-4.54-3.68-8.216-8.216-8.216zM16 21.333c-2.947 0-5.333-2.387-5.333-5.333s2.387-5.333 5.333-5.333c2.947 0 5.333 2.387 5.333 5.333s-2.387 5.333-5.333 5.333zM26.461 7.46c0 1.060-0.861 1.92-1.92 1.92-1.060 0-1.92-0.861-1.92-1.92s0.861-1.919 1.92-1.919c1.057-0.001 1.92 0.86 1.92 1.919z"></path>
</symbol>
<symbol id="icon-phone" viewBox="0 0 32 32">
<path d="M23.2 29.334c-5.444-0.007-10.662-2.173-14.512-6.022s-6.015-9.068-6.022-14.511c0-1.627 0.646-3.187 1.796-4.337s2.71-1.796 4.337-1.796c0.344-0.003 0.688 0.029 1.027 0.093 0.327 0.048 0.649 0.129 0.96 0.24 0.219 0.077 0.414 0.209 0.566 0.385s0.256 0.387 0.3 0.615l1.827 8c0.049 0.217 0.043 0.443-0.017 0.657s-0.174 0.41-0.329 0.569c-0.173 0.187-0.187 0.2-1.827 1.053 1.313 2.881 3.618 5.195 6.493 6.52 0.867-1.653 0.88-1.667 1.067-1.84 0.159-0.156 0.355-0.269 0.569-0.329s0.44-0.066 0.657-0.017l8 1.827c0.22 0.051 0.424 0.158 0.592 0.309s0.295 0.343 0.368 0.558c0.112 0.316 0.197 0.642 0.253 0.973 0.054 0.335 0.080 0.674 0.080 1.013-0.025 1.62-0.689 3.164-1.848 4.296s-2.719 1.759-4.339 1.744z"></path>
</symbol>
<symbol id="icon-heart" viewBox="0 0 37 32">
<path  d="M32.327 3.625c-3.702-3.096-9.154-2.625-12.586 0.942l-1.279 1.346-1.346-1.346c-2.759-2.827-8.279-4.577-12.586-0.942-4.24 3.635-4.442 10.096-0.673 14l13.058 13.462c0.404 0.404 0.942 0.606 1.481 0.606 0.606 0 1.144-0.202 1.548-0.606l13.058-13.462c3.769-3.904 3.567-10.365-0.673-14zM31.452 16.144l-12.99 13.462-13.058-13.462c-2.558-2.692-3.096-7.74 0.538-10.837 3.702-3.163 8.010-0.875 9.625 0.74l2.894 2.962 2.827-2.962c1.548-1.615 5.923-3.904 9.625-0.74 3.635 3.096 3.096 8.144 0.538 10.837z"></path>
</symbol>
<symbol id="icon-close" viewBox="0 0 32 32">
<path stroke-linejoin="miter" stroke-linecap="butt" stroke-miterlimit="4" stroke-width="2.4615" d="M1.231 16c0-8.157 6.612-14.769 14.769-14.769v0c8.157 0 14.769 6.612 14.769 14.769v0c0 8.157-6.612 14.769-14.769 14.769v0c-8.157 0-14.769-6.612-14.769-14.769v0z"></path>
<path stroke-linejoin="round" stroke-linecap="round" stroke-miterlimit="4" stroke-width="2.4615" d="M6.154 6.154l19.692 19.692"></path>
<path stroke-linejoin="round" stroke-linecap="round" stroke-miterlimit="4" stroke-width="2.4615" d="M6.154 25.846l19.692-19.692"></path>
</symbol>
<symbol id="icon-menu" viewBox="0 0 42 43">
<path d="M5.25 12.75H37.25M5.25 21.75H37.25M5.25 30.75H37.25" stroke="#F5EBEB" stroke-width="2" stroke-linecap="round"/>
</symbol>
</defs>
</svg>
